<mxfile host="app.diagrams.net" modified="2023-05-01T12:05:05.652Z" agent="Mozilla/5.0 (Windows NT 10.0; Win64; x64) AppleWebKit/537.36 (KHTML, like Gecko) Chrome/112.0.0.0 Safari/537.36" etag="prvlDzwEtz6DKFpI3xWz" version="21.2.3" type="device">
  <diagram name="ページ1" id="KQ9-CmhiuASfPs4K2e-s">
    <mxGraphModel dx="1195" dy="589" grid="1" gridSize="10" guides="1" tooltips="1" connect="1" arrows="1" fold="1" page="1" pageScale="1" pageWidth="827" pageHeight="1169" math="0" shadow="0">
      <root>
        <mxCell id="0" />
        <mxCell id="1" parent="0" />
        <mxCell id="f1MHISkIHJjy1TzjVfn6-11" style="edgeStyle=orthogonalEdgeStyle;rounded=0;orthogonalLoop=1;jettySize=auto;html=1;entryX=0.5;entryY=0;entryDx=0;entryDy=0;" edge="1" parent="1" source="f1MHISkIHJjy1TzjVfn6-5" target="f1MHISkIHJjy1TzjVfn6-9">
          <mxGeometry relative="1" as="geometry" />
        </mxCell>
        <mxCell id="f1MHISkIHJjy1TzjVfn6-5" value="&lt;font style=&quot;vertical-align: inherit;&quot;&gt;&lt;font style=&quot;vertical-align: inherit;&quot;&gt;PlayFab&lt;/font&gt;&lt;/font&gt;" style="shape=cylinder3;whiteSpace=wrap;html=1;boundedLbl=1;backgroundOutline=1;size=15;" vertex="1" parent="1">
          <mxGeometry x="360" y="10" width="140" height="60" as="geometry" />
        </mxCell>
        <mxCell id="f1MHISkIHJjy1TzjVfn6-13" style="edgeStyle=orthogonalEdgeStyle;rounded=0;orthogonalLoop=1;jettySize=auto;html=1;entryX=0.5;entryY=1;entryDx=0;entryDy=0;entryPerimeter=0;" edge="1" parent="1" source="f1MHISkIHJjy1TzjVfn6-9" target="f1MHISkIHJjy1TzjVfn6-5">
          <mxGeometry relative="1" as="geometry" />
        </mxCell>
        <mxCell id="f1MHISkIHJjy1TzjVfn6-17" style="edgeStyle=orthogonalEdgeStyle;rounded=0;orthogonalLoop=1;jettySize=auto;html=1;" edge="1" parent="1" source="f1MHISkIHJjy1TzjVfn6-9">
          <mxGeometry relative="1" as="geometry">
            <mxPoint x="585" y="140" as="targetPoint" />
            <Array as="points">
              <mxPoint x="585" y="120" />
            </Array>
          </mxGeometry>
        </mxCell>
        <mxCell id="f1MHISkIHJjy1TzjVfn6-18" value="&lt;font style=&quot;vertical-align: inherit;&quot;&gt;&lt;font style=&quot;vertical-align: inherit;&quot;&gt;characterGetData&lt;br&gt;&lt;/font&gt;&lt;/font&gt;" style="edgeLabel;html=1;align=center;verticalAlign=middle;resizable=0;points=[];" vertex="1" connectable="0" parent="f1MHISkIHJjy1TzjVfn6-17">
          <mxGeometry x="0.1125" y="-1" relative="1" as="geometry">
            <mxPoint x="-25" y="-1" as="offset" />
          </mxGeometry>
        </mxCell>
        <mxCell id="f1MHISkIHJjy1TzjVfn6-22" value="" style="edgeStyle=orthogonalEdgeStyle;rounded=0;orthogonalLoop=1;jettySize=auto;html=1;" edge="1" parent="1" source="f1MHISkIHJjy1TzjVfn6-9" target="f1MHISkIHJjy1TzjVfn6-21">
          <mxGeometry relative="1" as="geometry" />
        </mxCell>
        <mxCell id="f1MHISkIHJjy1TzjVfn6-24" value="LogInData" style="edgeLabel;html=1;align=center;verticalAlign=middle;resizable=0;points=[];" vertex="1" connectable="0" parent="f1MHISkIHJjy1TzjVfn6-22">
          <mxGeometry x="0.1869" y="3" relative="1" as="geometry">
            <mxPoint as="offset" />
          </mxGeometry>
        </mxCell>
        <mxCell id="f1MHISkIHJjy1TzjVfn6-9" value="&lt;font style=&quot;vertical-align: inherit;&quot;&gt;&lt;font style=&quot;vertical-align: inherit;&quot;&gt;PlayFabManager&lt;/font&gt;&lt;/font&gt;" style="shape=parallelogram;perimeter=parallelogramPerimeter;whiteSpace=wrap;html=1;fixedSize=1;" vertex="1" parent="1">
          <mxGeometry x="370" y="100" width="120" height="40" as="geometry" />
        </mxCell>
        <mxCell id="f1MHISkIHJjy1TzjVfn6-16" style="edgeStyle=orthogonalEdgeStyle;rounded=0;orthogonalLoop=1;jettySize=auto;html=1;entryX=0.5;entryY=0;entryDx=0;entryDy=0;" edge="1" parent="1" source="f1MHISkIHJjy1TzjVfn6-14" target="f1MHISkIHJjy1TzjVfn6-25">
          <mxGeometry relative="1" as="geometry">
            <mxPoint x="584.9999999999998" y="150" as="targetPoint" />
          </mxGeometry>
        </mxCell>
        <mxCell id="f1MHISkIHJjy1TzjVfn6-14" value="&lt;font style=&quot;vertical-align: inherit;&quot;&gt;&lt;font style=&quot;vertical-align: inherit;&quot;&gt;characterData&lt;/font&gt;&lt;/font&gt;" style="shape=parallelogram;perimeter=parallelogramPerimeter;whiteSpace=wrap;html=1;fixedSize=1;" vertex="1" parent="1">
          <mxGeometry x="525" y="30" width="120" height="40" as="geometry" />
        </mxCell>
        <mxCell id="f1MHISkIHJjy1TzjVfn6-21" value="SaveDataManager" style="shape=parallelogram;perimeter=parallelogramPerimeter;whiteSpace=wrap;html=1;fixedSize=1;" vertex="1" parent="1">
          <mxGeometry x="230" y="150" width="120" height="40" as="geometry" />
        </mxCell>
        <mxCell id="f1MHISkIHJjy1TzjVfn6-25" value="&lt;ul&gt;&lt;li&gt;GetcharacterDataList&lt;/li&gt;&lt;/ul&gt;SetGetcharacterDataList()&lt;br&gt;" style="rounded=0;whiteSpace=wrap;html=1;align=left;" vertex="1" parent="1">
          <mxGeometry x="482.5" y="140" width="205" height="60" as="geometry" />
        </mxCell>
      </root>
    </mxGraphModel>
  </diagram>
</mxfile>
